<svg version="1.1" id="Layer_1" xmlns="http://www.w3.org/2000/svg" xmlns:xlink="http://www.w3.org/1999/xlink" x="0px" y="0px"
	 width="100%" viewBox="0 0 2560 1771" enable-background="new 0 0 2560 1771" xml:space="preserve">
<path fill="#010000" opacity="1.000000" stroke="none" 
	d="
M1588.000000,1774.000000 
	C1058.727539,1774.000000 530.455078,1774.000000 2.091309,1774.000000 
	C2.091309,1183.462280 2.091309,592.924500 2.091309,2.193390 
	C855.106079,2.193390 1708.212280,2.193390 2561.659180,2.193390 
	C2561.659180,592.666504 2561.659180,1183.333252 2561.659180,1774.000000 
	C2237.590576,1774.000000 1913.295288,1774.000000 1588.000000,1774.000000 
M1231.000000,1767.665405 
	C1306.942749,1767.216064 1382.886719,1766.901245 1458.828003,1766.269897 
	C1508.768066,1765.854614 1558.706299,1765.091431 1608.641602,1764.266724 
	C1631.251465,1763.893433 1653.852661,1762.988159 1676.457886,1762.331299 
	C1699.729492,1761.654907 1723.003662,1761.054932 1746.272461,1760.293335 
	C1762.881470,1759.749756 1779.485962,1759.044922 1796.088501,1758.322998 
	C1825.967529,1757.023682 1855.844971,1755.690674 1885.720215,1754.306274 
	C1901.985596,1753.552612 1918.255981,1752.841675 1934.504028,1751.796875 
	C1960.673340,1750.114014 1986.833252,1748.267456 2012.983765,1746.312256 
	C2041.460815,1744.182983 2070.013428,1742.647705 2098.369141,1739.415405 
	C2138.268799,1734.867554 2178.073975,1729.383789 2217.815186,1723.583862 
	C2260.628174,1717.335571 2301.403564,1704.711426 2339.013184,1682.694824 
	C2381.408936,1657.876221 2416.380615,1625.157715 2443.562988,1584.342529 
	C2467.083008,1549.026733 2482.183838,1510.267456 2490.301758,1468.512939 
	C2505.846436,1388.556152 2516.791016,1307.988892 2523.826172,1226.881836 
	C2527.497803,1184.554810 2530.760254,1142.184570 2533.525391,1099.789429 
	C2535.493408,1069.619385 2536.683594,1039.385620 2537.568115,1009.161316 
	C2538.629639,972.901123 2539.329834,936.622559 2539.550537,900.348145 
	C2539.702148,875.399902 2538.824463,850.444092 2538.311279,825.493591 
	C2537.702148,795.887268 2537.260986,766.273743 2536.246826,736.680481 
	C2535.279785,708.456909 2533.927246,680.240356 2532.269775,652.048584 
	C2530.594238,623.546509 2528.655762,595.051575 2526.245850,566.603149 
	C2523.724609,536.832886 2521.079346,507.051605 2517.461182,477.400482 
	C2511.466309,428.273102 2503.982910,379.359833 2494.133301,330.823486 
	C2485.837646,289.945648 2475.631836,249.832916 2454.834717,213.075684 
	C2428.933838,167.298111 2394.365723,129.758728 2350.293945,101.091927 
	C2308.609375,73.977760 2262.411377,58.600410 2213.746826,50.401180 
	C2159.027344,41.181778 2103.701416,37.083347 2048.467773,32.430618 
	C2019.025757,29.950493 1989.517212,28.226717 1960.024292,26.393156 
	C1935.491943,24.867987 1910.944458,23.562260 1886.393188,22.374617 
	C1856.188721,20.913513 1825.975464,19.632238 1795.762329,18.358089 
	C1777.827515,17.601740 1759.887329,16.966696 1741.946899,16.353411 
	C1721.010010,15.637691 1700.071655,14.958861 1679.131470,14.348576 
	C1654.527832,13.631525 1629.923706,12.909114 1605.316040,12.362957 
	C1571.046509,11.602355 1536.774536,10.926954 1502.501221,10.362303 
	C1480.516846,10.000111 1458.528076,9.904807 1436.541260,9.686579 
	C1391.256958,9.237113 1345.973267,8.503820 1300.688354,8.431005 
	C1269.071289,8.380168 1237.453735,9.325679 1205.834717,9.662075 
	C1137.231079,10.391953 1068.624756,10.907560 1000.022278,11.730742 
	C966.080872,12.138016 932.145203,13.028412 898.207092,13.709473 
	C887.886536,13.916583 877.559814,13.987456 867.247925,14.411933 
	C843.019897,15.409250 818.801697,16.641562 794.574707,17.665825 
	C774.643799,18.508459 754.699707,19.054453 734.772766,19.975439 
	C710.884827,21.079494 687.007935,22.426388 663.127930,23.698006 
	C646.534851,24.581587 629.924255,25.245892 613.357361,26.486307 
	C583.906860,28.691359 554.482666,31.248180 525.049194,33.679008 
	C506.184967,35.236954 487.260223,36.296021 468.474396,38.522160 
	C427.935730,43.326038 387.405640,48.295082 347.000000,54.088963 
	C326.975586,56.960320 306.824951,60.397289 287.442993,66.027763 
	C232.547897,81.974785 185.847229,111.583954 146.889221,153.562988 
	C113.201309,189.863251 89.194328,231.645538 75.828865,279.202881 
	C65.386780,316.358124 60.025948,354.613007 54.303799,392.724091 
	C45.279778,452.826599 39.505993,513.303772 34.454792,573.840332 
	C31.887362,604.609985 30.059828,635.450317 28.432261,666.286865 
	C26.733154,698.478882 25.190969,730.693726 24.452530,762.918579 
	C23.346611,811.180054 22.923773,859.458130 22.410421,907.731323 
	C22.322374,916.011108 23.456490,924.296448 23.638208,932.587708 
	C24.396595,967.190796 24.722277,1001.805481 25.756004,1036.399536 
	C26.688995,1067.622437 28.046577,1098.839844 29.754629,1130.030273 
	C31.352133,1159.201782 33.362774,1188.358398 35.732510,1217.477661 
	C38.020672,1245.594360 40.799610,1273.675781 43.719025,1301.735718 
	C48.911846,1351.646606 56.460003,1401.208374 66.128357,1450.457153 
	C72.877281,1484.834961 81.444519,1518.604614 97.326515,1550.093872 
	C119.719551,1594.492920 150.414032,1632.058960 190.211105,1661.976318 
	C227.198563,1689.781494 268.190521,1708.994019 313.743927,1717.814331 
	C369.556244,1728.621094 426.092407,1734.049194 482.592896,1739.522949 
	C510.677185,1742.243774 538.869080,1743.873657 567.021729,1745.864380 
	C595.500793,1747.878296 623.981812,1749.887207 652.479797,1751.603394 
	C678.343750,1753.161011 704.226501,1754.434570 730.110352,1755.629028 
	C761.648560,1757.084473 793.194458,1758.383789 824.741394,1759.639404 
	C844.342102,1760.419556 863.949341,1761.046265 883.556580,1761.647583 
	C907.159912,1762.371460 930.764893,1763.053101 954.371826,1763.647583 
	C983.308716,1764.376343 1012.245361,1765.186157 1041.187256,1765.621338 
	C1095.122925,1766.432129 1149.062378,1767.011963 1203.000488,1767.651245 
	C1211.665771,1767.753906 1220.333496,1767.665283 1231.000000,1767.665405 
z"/>
<path fill="#FF0000" opacity="1.000000" stroke="none" 
	d="
M1230.000000,1767.665283 
	C1220.333496,1767.665283 1211.665771,1767.753906 1203.000488,1767.651245 
	C1149.062378,1767.011963 1095.122925,1766.432129 1041.187256,1765.621338 
	C1012.245361,1765.186157 983.308716,1764.376343 954.371826,1763.647583 
	C930.764893,1763.053101 907.159912,1762.371460 883.556580,1761.647583 
	C863.949341,1761.046265 844.342102,1760.419556 824.741394,1759.639404 
	C793.194458,1758.383789 761.648560,1757.084473 730.110352,1755.629028 
	C704.226501,1754.434570 678.343750,1753.161011 652.479797,1751.603394 
	C623.981812,1749.887207 595.500793,1747.878296 567.021729,1745.864380 
	C538.869080,1743.873657 510.677185,1742.243774 482.592896,1739.522949 
	C426.092407,1734.049194 369.556244,1728.621094 313.743927,1717.814331 
	C268.190521,1708.994019 227.198563,1689.781494 190.211105,1661.976318 
	C150.414032,1632.058960 119.719551,1594.492920 97.326515,1550.093872 
	C81.444519,1518.604614 72.877281,1484.834961 66.128357,1450.457153 
	C56.460003,1401.208374 48.911846,1351.646606 43.719025,1301.735718 
	C40.799610,1273.675781 38.020672,1245.594360 35.732510,1217.477661 
	C33.362774,1188.358398 31.352133,1159.201782 29.754629,1130.030273 
	C28.046577,1098.839844 26.688995,1067.622437 25.756004,1036.399536 
	C24.722277,1001.805481 24.396595,967.190796 23.638208,932.587708 
	C23.456490,924.296448 22.322374,916.011108 22.410421,907.731323 
	C22.923773,859.458130 23.346611,811.180054 24.452530,762.918579 
	C25.190969,730.693726 26.733154,698.478882 28.432261,666.286865 
	C30.059828,635.450317 31.887362,604.609985 34.454792,573.840332 
	C39.505993,513.303772 45.279778,452.826599 54.303799,392.724091 
	C60.025948,354.613007 65.386780,316.358124 75.828865,279.202881 
	C89.194328,231.645538 113.201309,189.863251 146.889221,153.562988 
	C185.847229,111.583954 232.547897,81.974785 287.442993,66.027763 
	C306.824951,60.397289 326.975586,56.960320 347.000000,54.088963 
	C387.405640,48.295082 427.935730,43.326038 468.474396,38.522160 
	C487.260223,36.296021 506.184967,35.236954 525.049194,33.679008 
	C554.482666,31.248180 583.906860,28.691359 613.357361,26.486307 
	C629.924255,25.245892 646.534851,24.581587 663.127930,23.698006 
	C687.007935,22.426388 710.884827,21.079494 734.772766,19.975439 
	C754.699707,19.054453 774.643799,18.508459 794.574707,17.665825 
	C818.801697,16.641562 843.019897,15.409250 867.247925,14.411933 
	C877.559814,13.987456 887.886536,13.916583 898.207092,13.709473 
	C932.145203,13.028412 966.080872,12.138016 1000.022278,11.730742 
	C1068.624756,10.907560 1137.231079,10.391953 1205.834717,9.662075 
	C1237.453735,9.325679 1269.071289,8.380168 1300.688354,8.431005 
	C1345.973267,8.503820 1391.256958,9.237113 1436.541260,9.686579 
	C1458.528076,9.904807 1480.516846,10.000111 1502.501221,10.362303 
	C1536.774536,10.926954 1571.046509,11.602355 1605.316040,12.362957 
	C1629.923706,12.909114 1654.527832,13.631525 1679.131470,14.348576 
	C1700.071655,14.958861 1721.010010,15.637691 1741.946899,16.353411 
	C1759.887329,16.966696 1777.827515,17.601740 1795.762329,18.358089 
	C1825.975464,19.632238 1856.188721,20.913513 1886.393188,22.374617 
	C1910.944458,23.562260 1935.491943,24.867987 1960.024292,26.393156 
	C1989.517212,28.226717 2019.025757,29.950493 2048.467773,32.430618 
	C2103.701416,37.083347 2159.027344,41.181778 2213.746826,50.401180 
	C2262.411377,58.600410 2308.609375,73.977760 2350.293945,101.091927 
	C2394.365723,129.758728 2428.933838,167.298111 2454.834717,213.075684 
	C2475.631836,249.832916 2485.837646,289.945648 2494.133301,330.823486 
	C2503.982910,379.359833 2511.466309,428.273102 2517.461182,477.400482 
	C2521.079346,507.051605 2523.724609,536.832886 2526.245850,566.603149 
	C2528.655762,595.051575 2530.594238,623.546509 2532.269775,652.048584 
	C2533.927246,680.240356 2535.279785,708.456909 2536.246826,736.680481 
	C2537.260986,766.273743 2537.702148,795.887268 2538.311279,825.493591 
	C2538.824463,850.444092 2539.702148,875.399902 2539.550537,900.348145 
	C2539.329834,936.622559 2538.629639,972.901123 2537.568115,1009.161316 
	C2536.683594,1039.385620 2535.493408,1069.619385 2533.525391,1099.789429 
	C2530.760254,1142.184570 2527.497803,1184.554810 2523.826172,1226.881836 
	C2516.791016,1307.988892 2505.846436,1388.556152 2490.301758,1468.512939 
	C2482.183838,1510.267456 2467.083008,1549.026733 2443.562988,1584.342529 
	C2416.380615,1625.157715 2381.408936,1657.876221 2339.013184,1682.694824 
	C2301.403564,1704.711426 2260.628174,1717.335571 2217.815186,1723.583862 
	C2178.073975,1729.383789 2138.268799,1734.867554 2098.369141,1739.415405 
	C2070.013428,1742.647705 2041.460815,1744.182983 2012.983765,1746.312256 
	C1986.833252,1748.267456 1960.673340,1750.114014 1934.504028,1751.796875 
	C1918.255981,1752.841675 1901.985596,1753.552612 1885.720215,1754.306274 
	C1855.844971,1755.690674 1825.967529,1757.023682 1796.088501,1758.322998 
	C1779.485962,1759.044922 1762.881470,1759.749756 1746.272461,1760.293335 
	C1723.003662,1761.054932 1699.729492,1761.654907 1676.457886,1762.331299 
	C1653.852661,1762.988159 1631.251465,1763.893433 1608.641602,1764.266724 
	C1558.706299,1765.091431 1508.768066,1765.854614 1458.828003,1766.269897 
	C1382.886719,1766.901245 1306.942749,1767.216064 1230.000000,1767.665283 
M1618.106567,931.112610 
	C1643.085205,916.748352 1668.063843,902.384155 1694.030762,887.451599 
	C1474.614258,761.620361 1256.612549,636.600464 1037.759033,511.092010 
	C1037.759033,762.531067 1037.759033,1012.290039 1037.759033,1263.882935 
	C1231.555420,1152.767334 1424.198853,1042.312744 1618.106567,931.112610 
z"/>
<path fill="#FFFFFF" opacity="1.000000" stroke="none" 
	d="
M1617.474487,931.485352 
	C1424.198853,1042.312744 1231.555420,1152.767334 1037.759033,1263.882935 
	C1037.759033,1012.290039 1037.759033,762.531067 1037.759033,511.092010 
	C1256.612549,636.600464 1474.614258,761.620361 1694.030762,887.451599 
	C1668.063843,902.384155 1643.085205,916.748352 1617.474487,931.485352 
z"/>
</svg>